<svg version="1.1" id="Layer_1" xmlns="http://www.w3.org/2000/svg" xmlns:xlink="http://www.w3.org/1999/xlink" x="0px" y="0px"
	 width="100%" viewBox="0 0 358 358" enable-background="new 0 0 358 358" xml:space="preserve">
<path fill="#4CAF50" opacity="1.000000" stroke="none" 
	d="
M333.000000,359.000000 
	C222.000015,359.000000 111.500038,359.000000 1.000045,359.000000 
	C1.000030,239.666702 1.000030,120.333412 1.000015,1.000093 
	C120.333275,1.000062 239.666550,1.000062 358.999878,1.000031 
	C358.999908,120.333252 358.999908,239.666504 358.999939,358.999878 
	C350.500000,359.000000 342.000000,359.000000 333.000000,359.000000 
M37.044624,210.006210 
	C38.273262,208.763245 40.100468,207.734390 40.634033,206.242783 
	C44.273132,196.069672 47.618259,185.791733 51.110554,175.565491 
	C51.974846,173.034637 53.031906,170.569611 54.382446,167.089844 
	C59.052921,181.037216 63.560223,193.730423 67.490463,206.599869 
	C69.134293,211.982498 72.988121,209.466949 76.001740,209.960129 
	C78.552002,210.377472 80.484154,210.072281 81.540955,206.737198 
	C87.012718,189.469177 92.846535,172.315994 98.518127,155.110916 
	C98.897499,153.960068 98.979729,152.711258 99.206604,151.472855 
	C89.594208,150.681107 89.601463,150.683533 86.731499,159.254532 
	C83.986320,167.452911 81.233910,175.648880 78.464378,183.839035 
	C77.245140,187.444595 75.975578,191.033127 74.299492,195.867996 
	C69.581970,181.616928 65.215630,168.723572 61.089184,155.753876 
	C60.049328,152.485535 58.730549,150.988922 54.926266,150.983566 
	C50.761517,150.977692 48.576084,152.082626 47.621979,156.272903 
	C46.740852,160.142700 45.171494,163.857651 43.876450,167.630920 
	C40.809223,176.567657 37.724911,185.498535 34.206573,195.711746 
	C29.060194,180.046265 24.355400,165.724991 19.672279,151.469666 
	C15.942786,151.469666 12.536866,151.469666 8.695113,151.469666 
	C9.211612,153.439728 9.540339,155.033417 10.045815,156.568939 
	C15.032974,171.718750 20.048857,186.859100 25.057884,202.001724 
	C27.707436,210.011490 27.708580,210.011108 37.044624,210.006210 
M346.848267,199.186615 
	C353.447937,184.541534 347.574921,169.327942 333.620575,165.552521 
	C326.048126,163.503784 318.810760,164.554840 312.272858,170.347382 
	C312.061401,168.248978 311.919525,166.840897 311.771912,165.376129 
	C308.516022,165.376129 305.440826,165.376129 302.320190,165.376129 
	C302.320190,185.754974 302.320190,205.818573 302.320190,225.919968 
	C305.759064,225.919968 308.867798,225.919968 312.700317,225.919968 
	C312.700317,219.177124 312.700317,212.677368 312.700317,205.821854 
	C327.158966,213.563110 339.137329,211.247055 346.848267,199.186615 
M130.974716,180.055878 
	C131.727417,182.893036 130.677917,183.820068 127.730812,183.891129 
	C121.931824,184.030899 116.033379,184.055435 110.381187,185.168854 
	C104.502296,186.326904 101.311958,191.026596 101.101852,196.693115 
	C100.907524,201.934128 103.874535,206.857162 109.063614,208.853043 
	C116.269333,211.624542 123.382736,211.621490 129.967346,206.870346 
	C130.446701,206.524490 131.050583,206.351212 131.712509,206.043854 
	C131.930847,207.470184 132.101166,208.582840 132.267105,209.666809 
	C135.478012,209.666809 138.549301,209.666809 141.873108,209.666809 
	C141.873108,199.850525 142.101761,190.369568 141.781723,180.907196 
	C141.607925,175.768753 139.503906,171.223938 134.985001,168.146957 
	C126.949371,162.675400 110.741051,163.740433 102.747559,170.572037 
	C103.946198,172.749390 105.187073,175.003448 106.478233,177.348862 
	C108.841080,176.311966 110.750168,175.272415 112.783188,174.617737 
	C120.675636,172.076263 128.794937,173.368042 130.974716,180.055878 
M278.073517,165.842010 
	C277.935883,173.820297 278.137085,181.822983 277.564453,189.769928 
	C277.001282,197.585861 272.087189,201.582458 264.653809,201.223343 
	C258.012451,200.902481 255.045731,197.100845 255.012650,188.765335 
	C254.981842,180.998550 255.006073,173.231567 255.006073,165.270203 
	C251.316452,165.270203 248.215149,165.270203 245.094070,165.270203 
	C245.094070,176.039764 245.060410,186.636841 245.144424,197.233017 
	C245.153137,198.333923 245.780701,199.465271 246.256302,200.521652 
	C250.879501,210.790573 265.114441,213.930801 275.402863,206.980087 
	C276.139862,206.482178 276.929382,206.061966 277.873444,205.498886 
	C278.105896,207.161514 278.282928,208.427551 278.454468,209.654449 
	C281.758026,209.654449 284.824738,209.654449 287.707092,209.654449 
	C287.707092,194.608566 287.707092,179.918091 287.707092,165.216354 
	C284.422211,165.216354 281.600861,165.216354 278.073517,165.842010 
M175.552170,201.688171 
	C172.478256,201.688171 169.404358,201.688171 165.323013,201.688171 
	C167.094131,199.307816 168.087738,197.849197 169.204590,196.492004 
	C175.116974,189.307251 181.255524,182.296417 186.882355,174.895828 
	C188.739639,172.453064 189.303619,169.026962 190.718109,165.382812 
	C176.871826,165.382812 164.661789,165.382812 152.304947,165.382812 
	C152.304947,168.127853 152.304947,170.550186 152.304947,173.761322 
	C160.005692,173.761322 167.476715,173.761322 176.063705,173.761322 
	C168.380463,183.105392 161.696213,191.541122 154.643097,199.656250 
	C151.949432,202.755493 151.024277,205.786285 152.161041,209.764542 
	C164.753128,209.764542 177.301804,209.764542 189.890900,209.764542 
	C189.890900,206.969696 189.890900,204.436279 189.890900,201.688202 
	C185.156799,201.688202 180.840927,201.688202 175.552170,201.688171 
M197.915771,165.192749 
	C197.499878,167.784592 197.083969,170.376450 196.558990,173.648117 
	C204.921997,173.648117 212.300369,173.648117 220.628220,173.648117 
	C218.953140,175.851349 217.934677,177.288864 216.817032,178.644592 
	C210.896820,185.826050 204.757980,192.839478 199.125061,200.238617 
	C197.266785,202.679535 196.692825,206.098206 195.259018,209.767517 
	C209.478302,209.767517 222.048355,209.767517 234.848602,209.767517 
	C234.848602,207.101212 234.848602,204.673630 234.848602,201.593369 
	C226.870819,201.593369 219.011276,201.593369 210.183044,201.593369 
	C211.776596,199.419907 212.657516,198.092072 213.663574,196.866989 
	C219.570999,189.673492 225.358322,182.372696 231.502487,175.386292 
	C234.239838,172.273712 234.890533,169.164474 233.787048,165.085617 
	C222.084564,165.085617 210.465317,165.085617 197.915771,165.192749 
z"/>
<path fill="#FBFDFB" opacity="1.000000" stroke="none" 
	d="
M36.603470,210.007874 
	C27.708580,210.011108 27.707436,210.011490 25.057884,202.001724 
	C20.048857,186.859100 15.032974,171.718750 10.045815,156.568939 
	C9.540339,155.033417 9.211612,153.439728 8.695113,151.469666 
	C12.536866,151.469666 15.942786,151.469666 19.672279,151.469666 
	C24.355400,165.724991 29.060194,180.046265 34.206573,195.711746 
	C37.724911,185.498535 40.809223,176.567657 43.876450,167.630920 
	C45.171494,163.857651 46.740852,160.142700 47.621979,156.272903 
	C48.576084,152.082626 50.761517,150.977692 54.926266,150.983566 
	C58.730549,150.988922 60.049328,152.485535 61.089184,155.753876 
	C65.215630,168.723572 69.581970,181.616928 74.299492,195.867996 
	C75.975578,191.033127 77.245140,187.444595 78.464378,183.839035 
	C81.233910,175.648880 83.986320,167.452911 86.731499,159.254532 
	C89.601463,150.683533 89.594208,150.681107 99.206604,151.472855 
	C98.979729,152.711258 98.897499,153.960068 98.518127,155.110916 
	C92.846535,172.315994 87.012718,189.469177 81.540955,206.737198 
	C80.484154,210.072281 78.552002,210.377472 76.001740,209.960129 
	C72.988121,209.466949 69.134293,211.982498 67.490463,206.599869 
	C63.560223,193.730423 59.052921,181.037216 54.382446,167.089844 
	C53.031906,170.569611 51.974846,173.034637 51.110554,175.565491 
	C47.618259,185.791733 44.273132,196.069672 40.634033,206.242783 
	C40.100468,207.734390 38.273262,208.763245 36.603470,210.007874 
z"/>
<path fill="#FCFEFC" opacity="1.000000" stroke="none" 
	d="
M346.651031,199.505936 
	C339.137329,211.247055 327.158966,213.563110 312.700317,205.821854 
	C312.700317,212.677368 312.700317,219.177124 312.700317,225.919968 
	C308.867798,225.919968 305.759064,225.919968 302.320190,225.919968 
	C302.320190,205.818573 302.320190,185.754974 302.320190,165.376129 
	C305.440826,165.376129 308.516022,165.376129 311.771912,165.376129 
	C311.919525,166.840897 312.061401,168.248978 312.272858,170.347382 
	C318.810760,164.554840 326.048126,163.503784 333.620575,165.552521 
	C347.574921,169.327942 353.447937,184.541534 346.651031,199.505936 
M338.890350,185.881165 
	C337.010437,177.089417 332.079926,172.991440 324.246063,173.709610 
	C317.008789,174.373093 312.138519,180.003906 312.205994,187.629791 
	C312.273621,195.274292 317.000488,200.689728 324.351532,201.544693 
	C332.797760,202.527039 338.626404,196.595551 338.890350,185.881165 
z"/>
<path fill="#FAFDFA" opacity="1.000000" stroke="none" 
	d="
M130.881409,179.650116 
	C128.794937,173.368042 120.675636,172.076263 112.783188,174.617737 
	C110.750168,175.272415 108.841080,176.311966 106.478233,177.348862 
	C105.187073,175.003448 103.946198,172.749390 102.747559,170.572037 
	C110.741051,163.740433 126.949371,162.675400 134.985001,168.146957 
	C139.503906,171.223938 141.607925,175.768753 141.781723,180.907196 
	C142.101761,190.369568 141.873108,199.850525 141.873108,209.666809 
	C138.549301,209.666809 135.478012,209.666809 132.267105,209.666809 
	C132.101166,208.582840 131.930847,207.470184 131.712509,206.043854 
	C131.050583,206.351212 130.446701,206.524490 129.967346,206.870346 
	C123.382736,211.621490 116.269333,211.624542 109.063614,208.853043 
	C103.874535,206.857162 100.907524,201.934128 101.101852,196.693115 
	C101.311958,191.026596 104.502296,186.326904 110.381187,185.168854 
	C116.033379,184.055435 121.931824,184.030899 127.730812,183.891129 
	C130.677917,183.820068 131.727417,182.893036 130.881409,179.650116 
M125.168793,202.009125 
	C129.873383,199.992874 132.272491,196.725037 130.889359,191.103561 
	C126.147118,191.103561 121.305939,190.654465 116.626022,191.327164 
	C114.783997,191.591965 112.031906,194.325516 111.983253,196.001297 
	C111.924683,198.018921 113.873985,201.139603 115.731796,201.911926 
	C118.231056,202.950958 121.473572,202.202164 125.168793,202.009125 
z"/>
<path fill="#FDFEFD" opacity="1.000000" stroke="none" 
	d="
M278.426514,165.529175 
	C281.600861,165.216354 284.422211,165.216354 287.707092,165.216354 
	C287.707092,179.918091 287.707092,194.608566 287.707092,209.654449 
	C284.824738,209.654449 281.758026,209.654449 278.454468,209.654449 
	C278.282928,208.427551 278.105896,207.161514 277.873444,205.498886 
	C276.929382,206.061966 276.139862,206.482178 275.402863,206.980087 
	C265.114441,213.930801 250.879501,210.790573 246.256302,200.521652 
	C245.780701,199.465271 245.153137,198.333923 245.144424,197.233017 
	C245.060410,186.636841 245.094070,176.039764 245.094070,165.270203 
	C248.215149,165.270203 251.316452,165.270203 255.006073,165.270203 
	C255.006073,173.231567 254.981842,180.998550 255.012650,188.765335 
	C255.045731,197.100845 258.012451,200.902481 264.653809,201.223343 
	C272.087189,201.582458 277.001282,197.585861 277.564453,189.769928 
	C278.137085,181.822983 277.935883,173.820297 278.426514,165.529175 
z"/>
<path fill="#FCFEFC" opacity="1.000000" stroke="none" 
	d="
M176.038605,201.688187 
	C180.840927,201.688202 185.156799,201.688202 189.890900,201.688202 
	C189.890900,204.436279 189.890900,206.969696 189.890900,209.764542 
	C177.301804,209.764542 164.753128,209.764542 152.161041,209.764542 
	C151.024277,205.786285 151.949432,202.755493 154.643097,199.656250 
	C161.696213,191.541122 168.380463,183.105392 176.063705,173.761322 
	C167.476715,173.761322 160.005692,173.761322 152.304947,173.761322 
	C152.304947,170.550186 152.304947,168.127853 152.304947,165.382812 
	C164.661789,165.382812 176.871826,165.382812 190.718109,165.382812 
	C189.303619,169.026962 188.739639,172.453064 186.882355,174.895828 
	C181.255524,182.296417 175.116974,189.307251 169.204590,196.492004 
	C168.087738,197.849197 167.094131,199.307816 165.323013,201.688171 
	C169.404358,201.688171 172.478256,201.688171 176.038605,201.688187 
z"/>
<path fill="#FCFEFC" opacity="1.000000" stroke="none" 
	d="
M198.380920,165.139191 
	C210.465317,165.085617 222.084564,165.085617 233.787048,165.085617 
	C234.890533,169.164474 234.239838,172.273712 231.502487,175.386292 
	C225.358322,182.372696 219.570999,189.673492 213.663574,196.866989 
	C212.657516,198.092072 211.776596,199.419907 210.183044,201.593369 
	C219.011276,201.593369 226.870819,201.593369 234.848602,201.593369 
	C234.848602,204.673630 234.848602,207.101212 234.848602,209.767517 
	C222.048355,209.767517 209.478302,209.767517 195.259018,209.767517 
	C196.692825,206.098206 197.266785,202.679535 199.125061,200.238617 
	C204.757980,192.839478 210.896820,185.826050 216.817032,178.644592 
	C217.934677,177.288864 218.953140,175.851349 220.628220,173.648117 
	C212.300369,173.648117 204.921997,173.648117 196.558990,173.648117 
	C197.083969,170.376450 197.499878,167.784592 198.380920,165.139191 
z"/>
<path fill="#4FB153" opacity="1.000000" stroke="none" 
	d="
M338.906616,186.298706 
	C338.626404,196.595551 332.797760,202.527039 324.351532,201.544693 
	C317.000488,200.689728 312.273621,195.274292 312.205994,187.629791 
	C312.138519,180.003906 317.008789,174.373093 324.246063,173.709610 
	C332.079926,172.991440 337.010437,177.089417 338.906616,186.298706 
z"/>
<path fill="#51B155" opacity="1.000000" stroke="none" 
	d="
M124.782928,202.114929 
	C121.473572,202.202164 118.231056,202.950958 115.731796,201.911926 
	C113.873985,201.139603 111.924683,198.018921 111.983253,196.001297 
	C112.031906,194.325516 114.783997,191.591965 116.626022,191.327164 
	C121.305939,190.654465 126.147118,191.103561 130.889359,191.103561 
	C132.272491,196.725037 129.873383,199.992874 124.782928,202.114929 
z"/>
</svg>